<svg width="130" height="130" viewBox="0 0 130 130" fill="none" xmlns="http://www.w3.org/2000/svg">
<path d="M65 0C52.1442 0 39.5771 3.81218 28.888 10.9545C18.1988 18.0968 9.86755 28.2484 4.94786 40.1256C0.0281637 52.0028 -1.25905 65.0721 1.24899 77.6809C3.75702 90.2896 9.94767 101.872 19.0381 110.962C28.1285 120.052 39.7104 126.243 52.3191 128.751C64.9279 131.259 77.9972 129.972 89.8744 125.052C101.752 120.132 111.903 111.801 119.046 101.112C126.188 90.4229 130 77.8558 130 65C129.98 47.7669 123.126 31.2453 110.94 19.0596C98.7547 6.87402 82.2331 0.0195497 65 0ZM65 124.091C53.3129 124.091 41.8883 120.625 32.1709 114.132C22.4534 107.639 14.8796 98.4106 10.4071 87.6131C5.9347 76.8157 4.7645 64.9344 7.04453 53.4719C9.32457 42.0094 14.9524 31.4804 23.2164 23.2164C31.4805 14.9524 42.0094 9.32454 53.472 7.04451C64.9345 4.76447 76.8157 5.93467 87.6131 10.4071C98.4106 14.8796 107.639 22.4534 114.132 32.1708C120.625 41.8883 124.091 53.3129 124.091 65C124.091 80.6719 117.865 95.7019 106.784 106.784C95.7019 117.865 80.6719 124.091 65 124.091Z" fill="white"/>
<path d="M98.8885 62.4448L48.8386 33.5494C48.3896 33.2902 47.8804 33.1537 47.362 33.1536C46.8437 33.1534 46.3344 33.2897 45.8853 33.5486C45.4363 33.8076 45.0632 34.1801 44.8037 34.6289C44.5442 35.0776 44.4073 35.5867 44.4067 36.1051V93.896C44.4067 94.6796 44.718 95.4311 45.2721 95.9852C45.8262 96.5392 46.5777 96.8505 47.3613 96.8505C47.8802 96.8496 48.3897 96.712 48.8386 96.4517L98.8885 67.5562C99.3363 67.2965 99.7079 66.9237 99.9663 66.4752C100.225 66.0267 100.361 65.5181 100.361 65.0005C100.361 64.4829 100.225 63.9744 99.9663 63.5259C99.7079 63.0774 99.3363 62.7046 98.8885 62.4448ZM50.3158 88.7698V41.2312L91.5022 65.0005L50.3158 88.7698Z" fill="white"/>
</svg>
