<svg width="29" height="20" viewBox="0 0 29 20" fill="none" xmlns="http://www.w3.org/2000/svg">
<path d="M24.0305 1.0468L11.3375 13.7226L4.98672 7.27727C4.50752 6.78952 3.85419 6.51211 3.17045 6.50607C2.48671 6.50003 1.82857 6.76584 1.34082 7.24505C0.853074 7.72425 0.575664 8.37758 0.56962 9.06132C0.563576 9.74506 0.829394 10.4032 1.3086 10.8909L9.47266 19.2054C9.54749 19.2745 9.6264 19.3391 9.70899 19.3988C9.76485 19.4417 9.81211 19.4933 9.86797 19.5277C9.95783 19.5836 10.0511 19.6338 10.1473 19.6781C10.2031 19.7081 10.259 19.7425 10.3148 19.7683C10.4228 19.8087 10.5333 19.8417 10.6457 19.8671C10.6973 19.8671 10.7445 19.9015 10.7961 19.9101C11.1211 19.9733 11.4551 19.9733 11.7801 19.9101C11.8316 19.9101 11.8789 19.88 11.9305 19.8671C12.0413 19.8429 12.1504 19.8113 12.257 19.7726C12.3172 19.7468 12.3731 19.7124 12.4332 19.6824C12.5262 19.6406 12.6166 19.5932 12.7039 19.5406C12.7598 19.5019 12.8113 19.4546 12.8672 19.4116C12.9497 19.3534 13.0286 19.2902 13.1035 19.2226L27.6742 4.67766C27.9405 4.44505 28.1561 4.16015 28.3076 3.84068C28.459 3.52121 28.5432 3.17399 28.5548 2.82062C28.5664 2.46724 28.5052 2.11525 28.3749 1.78654C28.2447 1.45783 28.0483 1.15941 27.7978 0.909847C27.5474 0.660281 27.2483 0.464897 26.9191 0.335841C26.5899 0.206785 26.2377 0.146816 25.8844 0.159661C25.5311 0.172506 25.1841 0.257891 24.8652 0.410508C24.5463 0.563125 24.2621 0.779711 24.0305 1.0468Z" fill="#9E2236"/>
</svg>
