<?xml version="1.0" encoding="utf-8"?>
<!-- Generator: Adobe Illustrator 27.3.1, SVG Export Plug-In . SVG Version: 6.00 Build 0)  -->
<svg version="1.1" id="Layer_1" xmlns="http://www.w3.org/2000/svg" xmlns:xlink="http://www.w3.org/1999/xlink" x="0px" y="0px"
	 viewBox="0 0 852 384" style="enable-background:new 0 0 852 384;" xml:space="preserve">
<style type="text/css">
	.st0{fill:#03ABA3;}
	.st1{fill:#1985E3;}
	.st2{fill:#008C9D;}
	.st3{fill:#20D1CC;}
	.st4{fill:#0282C9;}
	.st5{fill:#016BB1;}
	.st6{fill:#01569A;}
	.st7{fill:#06429E;}
	.st8{fill:#FFFFFF;}
</style>
<g>
	<path class="st0" d="M473.8,274.5v2.2c0,0.5-0.3,0.8-0.8,0.8h-0.7c-0.5,0-0.8-0.3-0.8-0.8v-20.4c0-0.5,0.3-0.8,0.8-0.8h0.7
		c0.5,0,0.8,0.3,0.8,0.8v9c1.4-2.3,3.5-3.3,5.9-3.3c4.6,0,7.6,3.6,7.6,8s-3,7.9-7.6,7.9C477.3,277.8,475.2,276.8,473.8,274.5z
		 M485,269.9c0-3.2-2-5.9-5.5-5.9c-3.4,0-5.7,2.4-5.8,5.9c0,3.4,2.4,5.9,5.8,5.9C483,275.8,485,273.1,485,269.9z"/>
	<path class="st0" d="M492.9,283.4l2.4-6.1l-6.1-14c-0.2-0.6,0-1,0.6-1h0.9c0.5,0,0.8,0.2,0.9,0.6l4.9,11.7l4.6-11.6
		c0.2-0.5,0.5-0.7,0.9-0.7h1c0.6,0,0.9,0.4,0.6,1l-8.7,20.4c-0.2,0.5-0.5,0.6-0.9,0.6h-0.6C492.9,284.3,492.7,284,492.9,283.4z"/>
</g>
<path class="st1" d="M503.1,234.4c8.5,0,17.6-3.6,22-12.4v4.7c0,3.5,2.8,6.3,6.3,6.3s6.3-2.8,6.3-6.3V163c0-3.5-2.8-6.3-6.3-6.3
	s-6.3,2.8-6.3,6.3l0,0v37.7c0,12.1-7.9,21.9-20.2,21.9c-13.4,0-20.3-9.3-20.3-21.9v-37.9l0,0c0-3.4-2.7-6.1-6.1-6.1
	s-6.1,2.7-6.1,6.1v37.9C472.3,226.9,491.1,234.4,503.1,234.4z"/>
<path class="st1" d="M752.8,200.4c3.1,0,5.6-2.5,5.6-5.6c0-26.3-16.4-38.4-37.8-38.4c-22.6,0-38.9,16.2-38.9,38.9
	c0,23.8,16.2,39.2,39.5,39.2c10.9,0,23.3-4,30.8-11.6c1.1-1.1,1.6-2.4,1.6-4c0-3.1-2.5-5.6-5.6-5.6c-1.6,0-3,0.6-4,1.7
	c-5.4,5.2-14.7,8-22.5,8c-14.4,0-25.8-8.7-27.2-22.5L752.8,200.4z M694.3,190c2.1-14.4,13.5-22.3,26.6-22.3
	c14.7,0,24.7,7.8,25.3,22.3H694.3z"/>
<path class="st1" d="M599.7,159.6c-4.3-2-8.4-3-13.3-3c-9.3,0-18.5,3.3-23.4,11.5v-5.5c0-3.3-2.7-6.1-6.1-6.1
	c-3.4,0-6.1,2.7-6.1,6.1c0,0,0,62.2,0,65.6c0,3.4,2.8,6.2,6.2,6.2s6.2-2.8,6.2-6.2s0-37,0-37c0-14.3,7.9-22.2,22.2-22.5
	c3.4,0,6.3,0.7,9.1,2c0.8,0.3,1.6,0.5,2.5,0.5c3.4,0,6.1-2.7,6.1-6.1C603.2,162.7,601.7,160.5,599.7,159.6z"/>
<path class="st1" d="M640.7,189.1c-9.4-1.1-18.7-3-18.8-10.6c-0.2-8,8.2-12.1,18.7-12c4.6,0,12.9,1.1,16.9,3.2l3.3,1.6l0,0
	c0.8,0.4,1.6,0.6,2.5,0.6c3.2,0,5.7-2.6,5.7-5.7c0-2.4-1.5-4.5-3.7-5.3c-1.2-0.5-2.4-1-3.6-1.4c-6.8-2.4-14.3-3.6-21.3-3.6
	c-14.4-0.2-30.8,6.5-30.7,22.6c0,15.9,15.8,19.4,30.2,21.4c11.7,1.2,20.9,3.6,20.8,12c-0.3,9.9-12.1,11.5-19.6,11.5
	c-6.7,0-13.7-1.6-19.9-4.7l0,0c-0.8-0.4-1.8-0.7-2.7-0.7c-3.3,0-6,2.7-6,6c0,2.4,1.4,4.5,3.4,5.4l0,0h0.1c0.1,0,0.1,0.1,0.2,0.1
	c7.8,3.6,15.2,5.3,24.6,5.3c17,0,31.7-7.1,32-22.6C673.2,193.5,654.6,190.9,640.7,189.1z"/>
<path class="st1" d="M798.1,189.1c-9.4-1.1-18.7-3-18.8-10.6c-0.2-8,8.2-12.1,18.7-12c4.6,0,12.9,1.1,16.9,3.2l3.3,1.6l0,0
	c0.8,0.4,1.6,0.6,2.5,0.6c3.2,0,5.7-2.6,5.7-5.7c0-2.4-1.5-4.5-3.7-5.3c-1.2-0.5-2.4-1-3.6-1.4c-6.8-2.4-14.3-3.6-21.3-3.6
	c-14.4-0.2-30.8,6.5-30.7,22.6c0,15.9,15.8,19.4,30.2,21.4c11.7,1.2,20.9,3.6,20.8,12c-0.3,9.9-12.1,11.5-19.6,11.5
	c-6.7,0-13.7-1.6-19.9-4.7l0,0c-0.8-0.4-1.8-0.7-2.7-0.7c-3.3,0-6,2.7-6,6c0,2.4,1.4,4.5,3.4,5.4l0,0h0.1c0.1,0,0.1,0.1,0.2,0.1
	c7.8,3.6,15.2,5.3,24.6,5.3c17,0,31.7-7.1,32-22.6C830.6,193.5,811.9,190.9,798.1,189.1z"/>
<path class="st1" d="M369.2,213.2c-1.6,0-3,0.6-4,1.7c-5.4,5.2-14.7,8-22.5,8c-13.2,0-23.8-7.2-26.6-19c-1-2.7-1.5-5.7-1.5-8.7
	c0-3.1,0.6-6,1.5-8.7c2.8-11.8,13.4-19,26.6-19c7.8,0,17.2,2.8,22.5,8c1,1,2.4,1.7,4,1.7c3.1,0,5.6-2.5,5.6-5.6c0-1.5-0.5-2.8-1.6-4
	c-7.4-7.6-19.8-11.6-30.8-11.6c-23.2,0-39.5,15.3-39.5,39.2v0.2c0,23.8,16.2,39.2,39.5,39.2c10.9,0,23.3-4,30.8-11.6
	c1.1-1.1,1.6-2.4,1.6-4C374.8,215.7,372.3,213.2,369.2,213.2z"/>
<path class="st1" d="M424,156.7c-0.2,0-0.5,0-0.7,0c-0.3,0-0.5,0-0.8,0c-21.4,0-38.1,13.5-38.1,38.9c0,24.7,16.7,38.7,38.3,38.7
	c0.2,0,0.4,0,0.6,0s0.4,0,0.6,0c21.6,0,38.3-14,38.3-38.7C462.1,170.2,445.4,156.7,424,156.7z M444.5,212.3
	c-0.3,0.4-0.5,0.7-0.8,1.1c-2,2.5-4.5,4.5-7.3,6c-0.1,0.1-0.3,0.2-0.4,0.2c-0.4,0.2-0.9,0.4-1.4,0.6c-0.4,0.2-0.7,0.3-1.1,0.5
	c-0.2,0.1-0.4,0.2-0.7,0.2c-3,1.1-6.2,1.6-9.6,1.6s-6.6-0.6-9.6-1.6c-0.2-0.1-0.4-0.1-0.7-0.2c-0.4-0.1-0.7-0.3-1.1-0.5
	c-0.5-0.2-0.9-0.4-1.4-0.6c-0.1-0.1-0.3-0.2-0.4-0.2c-2.8-1.5-5.3-3.6-7.3-6c-0.3-0.4-0.6-0.7-0.8-1.1c-0.2-0.2-0.3-0.5-0.5-0.7
	c-2.8-4.2-4.5-9.6-4.5-16c0-5.3,1.1-9.9,3-13.7c3.6-6.8,9.9-11.4,17.5-13c0.1,0,0.3-0.1,0.4-0.1c0.4-0.1,0.8-0.1,1.2-0.2
	c0.5-0.1,1.1-0.2,1.6-0.2c0.1,0,0.3,0,0.5,0c0.7,0,1.4-0.1,2.1-0.1s1.4,0,2.1,0.1c0.2,0,0.3,0,0.5,0c0.5,0,1.1,0.1,1.6,0.2
	c0.4,0.1,0.8,0.1,1.2,0.2c0.1,0,0.3,0.1,0.4,0.1c7.6,1.6,13.9,6.2,17.5,13c1.9,3.8,3,8.4,3,13.7c0,6.4-1.6,11.8-4.5,16
	C444.9,211.8,444.7,212,444.5,212.3z"/>
<g>
	<polygon class="st2" points="192.5,220.1 136.1,117.4 126.8,117.5 80.8,207 150.6,242.9 150.9,242.9 	"/>
	<polygon class="st2" points="140.7,117.3 196.1,218.2 197.8,221.3 196.6,125.1 180.3,116.8 	"/>
	<polygon class="st2" points="200.7,127.2 202.2,242.1 202.2,245.7 250.1,152.7 	"/>
	<polygon class="st2" points="197.9,221.8 194.5,223.7 159.8,242.7 198.1,242.2 	"/>
	<polygon class="st2" points="198.2,246.2 158.3,246.8 192.6,264.5 202,246.2 	"/>
	<polygon class="st2" points="138.5,113.3 172.6,112.8 138.3,95.1 133.6,104.3 135.5,107.9 	"/>
	<polygon class="st2" points="133.9,113.3 131.9,109.8 130.3,110.7 128.9,113.4 	"/>
</g>
<g>
	<polygon class="st3" points="151.9,146.1 105.6,178.3 150.4,242.8 150.6,242.9 150.9,242.9 192.5,220.1 	"/>
	<polygon class="st3" points="155.3,143.8 196.1,218.2 197.8,221.3 196.6,125.3 188.2,120.9 	"/>
	<polygon class="st3" points="197.9,221.8 194.5,223.7 159.8,242.7 198.1,242.2 	"/>
	<polygon class="st3" points="202.2,242.1 202.2,245.7 246.2,160.3 236.1,145.7 200.7,127.4 	"/>
	<polygon class="st3" points="200.5,116.5 200.6,122.8 231.1,138.5 208.9,106.5 200.4,112.4 200.5,112.4 	"/>
	<polygon class="st3" points="196.5,120.6 196.4,116.6 194.4,116.6 192,118.3 	"/>
	<polygon class="st3" points="190.7,268.1 155.3,249.9 177.3,281.5 194.1,269.9 	"/>
	<polygon class="st3" points="280.6,209.8 248.8,164.1 196.2,266.4 194.5,269.6 	"/>
	<polygon class="st3" points="202,246.2 198.2,246.2 158.2,246.8 192.5,264.5 	"/>
</g>
<g>
	<polygon class="st0" points="192.5,220.1 151.9,146.1 105.6,178.3 150.4,242.8 150.6,242.9 150.9,242.9 	"/>
	<polygon class="st0" points="202.2,242.1 202.2,245.7 246.2,160.3 235.8,145.3 200.7,127.2 	"/>
	<polygon class="st0" points="198.2,246.2 158.3,246.8 192.6,264.5 202,246.2 	"/>
	<polygon class="st0" points="155.3,143.8 196.1,218.2 197.8,221.3 196.6,125.1 188.3,120.9 	"/>
	<polygon class="st0" points="197.9,221.8 194.5,223.7 159.8,242.7 198.1,242.2 	"/>
</g>
<g>
	<polygon class="st4" points="136.1,117.3 117.8,117.6 71,143.3 72.3,244 150.9,242.9 192.5,220.1 	"/>
	<polygon class="st4" points="196.1,218.2 197.8,221.2 196.5,116.5 140.7,117.3 	"/>
	<polygon class="st4" points="109.1,117.7 70.6,118.2 70.9,138.7 	"/>
	<polygon class="st4" points="194.5,223.7 159.8,242.8 198.1,242.2 197.8,221.9 	"/>
</g>
<g>
	<polygon class="st5" points="196.2,218.2 197.9,221.3 196.6,125.1 180.4,116.8 140.7,117.3 	"/>
	<polygon class="st5" points="194.5,223.7 159.7,242.8 198.1,242.2 197.9,221.8 	"/>
	<polygon class="st5" points="136.1,117.3 126.8,117.5 80.8,207 150.6,242.9 150.9,242.9 192.5,220.1 	"/>
</g>
<g>
	
		<rect x="44.2" y="132.3" transform="matrix(0.8765 -0.4814 0.4814 0.8765 -80.7369 75.6282)" class="st6" width="125.7" height="125.7"/>
</g>
<polygon class="st7" points="71,143.3 72.3,244 150.9,242.9 192.5,220.1 136.1,117.4 117.8,117.6 "/>
<g>
	<path class="st1" d="M520.8,255.9c1.3,0,2.6,0.1,3.9,0.3c1.2,0.2,2.4,0.6,3.5,1.3c0.9-0.5,1.9-0.8,2.9-1.1c1.2-0.3,2.5-0.5,3.8-0.5
		c1.3,0,2.6,0.1,3.8,0.4c1.3,0.2,2.5,0.7,3.6,1.5c1.1,0.9,2,2,2.6,3.3c0.7,1.4,1,3.3,1,5.7V281c-0.7,0.1-1.5,0.2-2.2,0.3
		c-0.7,0-1.3,0.1-1.8,0.1c-0.5,0-1.1,0-1.8-0.1c-0.8-0.1-1.5-0.2-2.2-0.3v-13.4c0-1.7-0.3-2.9-0.9-3.6c-0.6-0.7-1.5-1.1-2.8-1.1
		c-0.4,0-0.9,0-1.3,0.1c-0.3,0.1-0.6,0.1-0.9,0.2c0.3,1.2,0.4,2.5,0.4,3.8v13.9c-0.7,0.1-1.5,0.2-2.2,0.3c-0.7,0-1.3,0.1-1.8,0.1
		c-0.5,0-1.1,0-1.8-0.1c-0.8-0.1-1.5-0.2-2.2-0.3v-13.4c0-1.7-0.3-2.9-0.8-3.6s-1.5-1.1-2.7-1c-0.4,0-0.7,0-1.1,0.1
		c-0.3,0-0.5,0.1-0.7,0.2V281c-0.7,0.1-1.5,0.2-2.2,0.3c-0.7,0-1.3,0.1-1.8,0.1c-0.5,0-1.1,0-1.8-0.1c-0.8-0.1-1.5-0.2-2.3-0.3
		v-23.4c1.1-0.4,2.4-0.8,4-1.1C516.8,256.1,518.8,255.9,520.8,255.9"/>
	<path class="st1" d="M556.7,271.3c0.2,1.1,0.9,2.1,1.8,2.8c1.1,0.6,2.3,0.9,3.5,0.8c1,0,2.1-0.1,3.1-0.3c1.2-0.2,2.3-0.6,3.4-1
		c0.5,0.9,0.9,1.9,1.2,3c0.3,1.2,0.5,2.4,0.5,3.6c-2.8,1-5.7,1.5-8.7,1.5c-2,0-4-0.3-5.9-1c-1.5-0.6-2.9-1.5-4-2.6
		c-1-1.2-1.8-2.5-2.3-4c-0.5-1.6-0.8-3.4-0.7-5.1c0-1.7,0.2-3.4,0.8-5.1c0.5-1.5,1.3-2.9,2.3-4.1c1-1.2,2.3-2.2,3.8-2.8
		c1.7-0.7,3.5-1.1,5.3-1c1.5,0,3.1,0.3,4.5,0.9c1.3,0.5,2.4,1.3,3.4,2.4c0.9,1,1.7,2.3,2.1,3.6c0.5,1.5,0.8,3,0.7,4.6
		c0,0.8,0,1.5-0.1,2.3c-0.1,0.7-0.2,1.2-0.2,1.7L556.7,271.3L556.7,271.3z M560.5,261.9c-1,0-1.9,0.3-2.6,1c-0.7,0.6-1.2,1.6-1.3,3
		h7.6c0-1-0.4-2-1-2.8C562.5,262.3,561.5,261.8,560.5,261.9"/>
	<path class="st1" d="M584.1,255.9c1.3,0,2.6,0.1,3.9,0.3c1.2,0.2,2.4,0.6,3.5,1.3c0.9-0.5,1.9-0.8,2.9-1.1c1.2-0.3,2.5-0.5,3.8-0.5
		c1.3,0,2.6,0.1,3.8,0.4c1.3,0.2,2.5,0.7,3.6,1.5c1.1,0.9,2,2,2.6,3.3c0.7,1.4,1,3.3,1,5.7V281c-0.7,0.1-1.5,0.2-2.2,0.3
		c-0.7,0-1.3,0.1-1.8,0.1c-0.5,0-1.1,0-1.8-0.1c-0.8-0.1-1.5-0.2-2.2-0.3v-13.4c0-1.7-0.3-2.9-0.9-3.6c-0.6-0.7-1.5-1.1-2.8-1.1
		c-0.4,0-0.9,0-1.3,0.1c-0.3,0.1-0.6,0.1-0.9,0.2c0.3,1.2,0.4,2.5,0.4,3.8v13.9c-0.7,0.1-1.5,0.2-2.2,0.3c-0.7,0-1.3,0.1-1.8,0.1
		c-0.5,0-1.1,0-1.8-0.1c-0.8-0.1-1.5-0.2-2.2-0.3v-13.4c0-1.7-0.3-2.9-0.8-3.6s-1.5-1.1-2.8-1.1c-0.4,0-0.8,0-1.1,0.1
		c-0.3,0-0.5,0.1-0.7,0.2V281c-0.7,0.1-1.5,0.2-2.2,0.3c-0.7,0-1.3,0.1-1.8,0.1c-0.5,0-1.1,0-1.8-0.1c-0.8-0.1-1.5-0.2-2.2-0.3
		v-23.4c1.1-0.4,2.4-0.8,4-1.1C580.1,256.1,582.1,255.9,584.1,255.9"/>
	<path class="st1" d="M613,256.5c0.6-0.1,1.4-0.2,2.2-0.3c0.8-0.1,1.7-0.2,2.5-0.2c0.9-0.1,1.7-0.1,2.5-0.1c0.8,0,1.5,0,2.1,0
		c4,0,6.9,0.6,8.9,1.7c2,1.1,3,2.9,3,5.3c0,1.1-0.3,2.2-0.8,3.1c-0.6,0.9-1.4,1.6-2.3,2.2c1.2,0.4,2.4,1.1,3.3,2
		c0.9,0.9,1.3,2.1,1.3,3.8c0,2.9-1.1,4.9-3.2,6.1c-2.2,1.1-5.3,1.7-9.6,1.7c-1.1,0-2.6,0-4.4-0.1c-1.8-0.1-3.6-0.2-5.5-0.5
		L613,256.5L613,256.5z M621,265.8h2.3c1.2,0,2-0.3,2.4-0.8c0.4-0.5,0.6-1,0.6-1.6c0-0.6-0.2-1.1-0.6-1.5c-0.4-0.5-1.2-0.7-2.3-0.7
		c-0.4,0-0.8,0-1.2,0c-0.5,0-0.8,0-1.2,0.1L621,265.8L621,265.8z M621,270.8v4.9c0.1,0,0.3,0,0.8,0c0.4,0,1,0,1.7,0
		c1.3,0,2.3-0.2,2.9-0.7c0.6-0.4,0.9-1.1,0.9-1.9c0-0.3-0.1-0.6-0.2-0.9c-0.1-0.3-0.3-0.6-0.6-0.8c-0.4-0.3-0.8-0.4-1.2-0.5
		c-0.6-0.2-1.3-0.2-2-0.2L621,270.8L621,270.8z"/>
	<path class="st1" d="M645.5,271.3c0.2,1.1,0.9,2.1,1.8,2.8c1.1,0.6,2.3,0.9,3.5,0.8c1,0,2.1-0.1,3.1-0.3c1.2-0.2,2.3-0.6,3.4-1
		c0.5,0.9,0.9,1.9,1.2,3c0.3,1.2,0.5,2.4,0.5,3.6c-2.8,1-5.7,1.6-8.7,1.6c-2,0-4-0.3-5.9-1c-1.5-0.6-2.9-1.5-4-2.6
		c-1-1.2-1.8-2.5-2.3-4c-0.5-1.6-0.8-3.4-0.7-5.1c0-1.7,0.2-3.4,0.8-5.1c0.5-1.5,1.2-2.9,2.3-4.1c1-1.2,2.3-2.2,3.8-2.8
		c1.7-0.7,3.5-1.1,5.3-1c1.5,0,3.1,0.3,4.5,0.9c1.3,0.5,2.4,1.3,3.4,2.4c0.9,1,1.7,2.3,2.1,3.6c0.5,1.5,0.8,3,0.7,4.6
		c0,0.8,0,1.5-0.1,2.3c-0.1,0.7-0.2,1.2-0.2,1.7L645.5,271.3L645.5,271.3z M649.3,261.9c-1,0-1.9,0.3-2.6,1c-0.7,0.6-1.2,1.6-1.3,3
		h7.6c0-1-0.4-2-1-2.8C651.3,262.3,650.4,261.9,649.3,261.9"/>
	<path class="st1" d="M663,256.5c1.5-0.2,3-0.4,4.6-0.5c1.6-0.1,3.1-0.2,4.5-0.2c3.8,0,6.7,0.7,8.6,2.2s2.9,3.5,2.9,6.1
		c0,0.9-0.1,1.7-0.3,2.6c-0.2,0.7-0.5,1.3-0.8,1.9c-0.3,0.5-0.6,0.9-1,1.3c-0.4,0.3-0.6,0.6-0.9,0.8l5.4,10.4
		c-0.7,0.1-1.4,0.2-2.1,0.3c-0.8,0.1-1.5,0.1-2.3,0.1c-0.9,0-1.7,0-2.6-0.1c-0.7,0-1.4-0.1-2-0.3l-5.3-11.2l0.7-0.4
		c0.9-0.5,1.7-1.2,2.3-2c0.4-0.7,0.6-1.5,0.6-2.3c0-0.7-0.2-1.5-0.7-2c-0.5-0.5-1.3-0.8-2.4-0.8c-0.5,0-0.9,0-1.4,0.1V281
		c-0.7,0.1-1.5,0.2-2.2,0.3c-0.7,0-1.2,0.1-1.8,0.1c-0.5,0-1.1,0-1.8-0.1c-0.7-0.1-1.5-0.2-2.2-0.3L663,256.5L663,256.5z"/>
	<path class="st1" d="M699.7,255.9c1.3,0,2.6,0.1,3.9,0.3c1.2,0.2,2.4,0.6,3.5,1.3c0.9-0.5,1.9-0.8,2.9-1.1c1.2-0.3,2.5-0.5,3.8-0.5
		c1.3,0,2.6,0.1,3.8,0.4c1.3,0.2,2.5,0.7,3.6,1.5c1.1,0.9,2,2,2.6,3.3c0.7,1.4,1,3.3,1,5.7V281c-0.7,0.1-1.5,0.2-2.2,0.3
		c-0.7,0-1.3,0.1-1.8,0.1c-0.5,0-1.1,0-1.8-0.1c-0.8-0.1-1.5-0.2-2.2-0.3v-13.4c0-1.7-0.3-2.9-0.9-3.6c-0.6-0.7-1.5-1.1-2.8-1.1
		c-0.4,0-0.9,0-1.3,0.1c-0.3,0.1-0.6,0.1-0.9,0.2c0.3,1.2,0.4,2.5,0.4,3.8v13.9c-0.7,0.1-1.5,0.2-2.2,0.3c-0.7,0-1.3,0.1-1.8,0.1
		c-0.5,0-1.1,0-1.8-0.1c-0.8-0.1-1.5-0.2-2.2-0.3v-13.4c0-1.7-0.3-2.9-0.8-3.6c-0.5-0.7-1.5-1.1-2.8-1.1c-0.4,0-0.7,0-1.1,0.1
		c-0.3,0-0.5,0.1-0.7,0.2V281c-0.7,0.1-1.5,0.2-2.2,0.3c-0.7,0-1.3,0.1-1.8,0.1c-0.5,0-1.1,0-1.8-0.1c-0.8-0.1-1.5-0.2-2.2-0.3
		v-23.4c1.1-0.4,2.4-0.8,4-1.1C695.7,256.1,697.7,255.9,699.7,255.9"/>
	<path class="st1" d="M776.5,279.9c-0.5,0.2-1.2,0.4-1.9,0.6c-0.7,0.2-1.5,0.4-2.4,0.6c-0.8,0.2-1.7,0.3-2.6,0.4
		c-0.9,0.1-1.7,0.1-2.6,0.1c-1.6,0-3.1-0.1-4.7-0.4c-1.4-0.2-2.7-0.7-3.9-1.5c-1.2-0.9-2.1-2-2.7-3.4c-0.7-1.5-1-3.4-1-5.9v-13.9
		c0.7-0.2,1.4-0.3,2.1-0.3c0.7-0.1,1.3-0.1,2-0.1s1.3,0,2,0.1c0.7,0.1,1.4,0.2,2,0.3v13.2c0,1.9,0.3,3.2,1,3.9s1.6,1,2.9,1
		c0.4,0,0.8,0,1.2,0c0.2,0,0.4-0.1,0.6-0.1v-18.1c0.7-0.2,1.4-0.3,2.1-0.3c0.7-0.1,1.3-0.1,2-0.1c0.6,0,1.2,0,2,0.1
		c0.7,0.1,1.4,0.2,2,0.3L776.5,279.9L776.5,279.9z"/>
	<path class="st1" d="M792.5,265.6c0.9,0.2,1.8,0.5,2.6,0.9c0.7,0.3,1.4,0.8,2,1.4c0.6,0.6,1,1.3,1.3,2.1c0.3,1,0.5,2,0.5,3
		c0,1.2-0.2,2.3-0.7,3.4c-0.5,1.1-1.3,2-2.2,2.7c-1.1,0.8-2.3,1.4-3.6,1.8c-1.6,0.5-3.2,0.7-4.9,0.7c-1.4,0-2.8-0.1-4.2-0.3
		c-1.4-0.3-2.8-0.6-4.1-1.1c0.2-2.3,0.8-4.5,1.8-6.6c1,0.5,2.1,0.9,3.2,1.1c1.1,0.2,2.2,0.4,3.3,0.4c0.4,0,0.8,0,1.2,0
		c0.4,0,0.7-0.1,1.1-0.2c0.3-0.1,0.6-0.2,0.8-0.5c0.4-0.4,0.4-1.1,0-1.5c-0.1-0.1-0.2-0.2-0.3-0.2c-0.5-0.2-0.9-0.4-1.4-0.5
		l-3.2-0.9c-1.6-0.4-3-1.3-4.2-2.4c-1.1-1.1-1.7-2.7-1.7-4.6c0-2.3,1-4.5,2.9-6c1-0.7,2.1-1.3,3.3-1.6c1.4-0.4,2.8-0.6,4.2-0.6
		c1.3,0,2.7,0.1,4,0.4c1.4,0.3,2.9,0.6,4.2,1.1c-0.1,1.1-0.3,2.2-0.6,3.3c-0.3,1.1-0.7,2.1-1.2,3.1c-1-0.4-2.1-0.7-3.1-1
		c-1.1-0.3-2.2-0.4-3.3-0.4c-1.5,0-2.2,0.4-2.2,1.2c0,0.3,0.2,0.7,0.5,0.8c0.4,0.2,0.8,0.4,1.2,0.5L792.5,265.6z"/>
	<path class="st1" d="M808.7,271.3c0.2,1.1,0.9,2.1,1.8,2.8c1.1,0.6,2.3,0.9,3.5,0.8c1,0,2.1-0.1,3.1-0.3c1.2-0.2,2.3-0.6,3.4-1
		c0.5,0.9,0.9,1.9,1.2,3c0.3,1.2,0.5,2.4,0.6,3.6c-2.8,1-5.7,1.6-8.7,1.6c-2,0-4-0.3-5.9-1c-1.5-0.6-2.9-1.5-4-2.6
		c-1-1.2-1.8-2.5-2.3-4c-0.5-1.6-0.8-3.4-0.7-5.1c0-1.7,0.2-3.4,0.8-5.1c0.5-1.5,1.2-2.9,2.3-4.1c1-1.2,2.3-2.2,3.8-2.8
		c1.7-0.7,3.5-1.1,5.3-1c1.5,0,3.1,0.3,4.5,0.9c1.3,0.5,2.4,1.3,3.4,2.4c0.9,1,1.7,2.3,2.1,3.6c0.5,1.5,0.7,3,0.7,4.6
		c0,0.8,0,1.5-0.1,2.3c-0.1,0.7-0.1,1.2-0.2,1.7L808.7,271.3L808.7,271.3z M812.5,261.9c-1,0-1.9,0.3-2.6,0.9
		c-0.7,0.6-1.2,1.6-1.3,3h7.6c0-1-0.4-2-1-2.8C814.6,262.3,813.6,261.8,812.5,261.9"/>
	<path class="st1" d="M774.8,287.2c-8.2,3.1-16.2,4.2-22.7-2c-2.2-2.1-3.9-3.8-6.2-5c1.1-0.5,2.1-1.3,3-2.2c1.1-1.2,1.8-2.5,2.3-4
		c0.5-1.7,0.8-3.4,0.8-5.2c0-1.8-0.2-3.6-0.8-5.3c-0.5-1.5-1.3-2.9-2.3-4.1c-1.1-1.2-2.4-2.1-3.9-2.6c-0.8-0.3-1.5-0.5-2.4-0.7
		l0.1,0c2.1-1.6,2.5-4,1.2-5.6c-1.3-1.6-4-1.5-6,0c-1.9,1.4-2.5,4-1.6,5.7c-0.6,0.1-1.3,0.3-1.9,0.6c-0.2,0.1-0.4,0.2-0.7,0.3
		c-0.1-1.8-1.7-3.5-3.9-4.1c-2.5-0.6-4.9,0.6-5.5,2.7s1.4,4,3.8,4.9c0.4,0.2,0.8,0.3,1.2,0.3c-0.5,0.8-0.9,1.7-1.2,2.6
		c-0.5,1.7-0.8,3.5-0.8,5.3c0,1.8,0.2,3.5,0.8,5.2c0.5,1.5,1.3,2.9,2.3,4c1.1,1.1,2.4,2,3.8,2.6c1.7,0.6,3.5,0.9,5.3,0.9
		c1.1,0,2.2-0.1,3.3-0.3c6,2.3,9.9,7.9,16.8,9.2c5,1,10.8-1,15.3-2.7C776.2,287.3,775.5,287,774.8,287.2 M742.5,271.4
		c-0.6,0.7-1.6,1-2.8,1s-2.2-0.3-2.8-1c-0.7-0.8-1-1.8-0.9-2.8c-0.1-1,0.3-2.1,0.9-2.9c0.6-0.7,1.6-1,2.8-1s2.2,0.3,2.8,1
		c0.7,0.8,1,1.8,1,2.9C743.5,269.6,743.2,270.6,742.5,271.4"/>
	<path class="st1" d="M824,248.3v0.9h-1.7v4.6h-1.1v-4.6h-1.7v-0.9H824L824,248.3z M829.9,253.8l-0.2-3.2c0-0.4,0-0.9,0-1.5h-0.1
		c-0.1,0.5-0.3,1.1-0.5,1.6l-1,3H827l-1-3.1c-0.1-0.4-0.3-1.1-0.4-1.5h-0.1c0,0.5,0,1,0,1.5l-0.2,3.2h-1l0.4-5.5h1.6l0.9,2.7
		c0.1,0.4,0.2,0.8,0.4,1.4l0,0c0.1-0.5,0.3-1,0.4-1.4l1-2.7h1.6l0.4,5.5H829.9L829.9,253.8z"/>
</g>
<path class="st8" d="M173.7,198.9c-11.5,13.5-24.5,23.1-42,18.5c-6-1.6-10.6-2.9-15.7-2.8c1.5-2,2.5-4.3,3.1-6.7
	c0.7-3.1,0.8-6.3,0.2-9.4c-0.7-3.5-1.9-6.9-3.7-9.9c-1.7-3.2-3.9-6.1-6.5-8.6c-2.3-2.2-5.1-3.9-8.1-5c-3-1-6.2-1.3-9.3-0.9
	c-1.6,0.2-3.2,0.6-4.8,1.1l0.1-0.1c2.1-4.9,0.6-9.5-3.2-11c-3.8-1.5-8.5,1.1-10.6,5.8c-2,4.4-0.5,9.5,2.7,11.7
	c-1,0.9-1.9,1.8-2.8,2.8c-0.3,0.4-0.6,0.8-0.9,1.2c-1.9-3.1-6.5-4.5-10.8-3.4c-5,1.3-8.1,5.8-7,10.1s6.4,5.6,11.5,5
	c0.8-0.1,1.7-0.3,2.4-0.6c-0.1,1.9,0,3.8,0.4,5.6c0.7,3.5,2,7,3.8,10.1c1.7,3.1,3.8,6,6.4,8.4c2.3,2.2,5,3.8,8,4.9
	c3,1,6.1,1.3,9.3,0.9c3.6-0.5,7-1.7,10.2-3.5c1.9-1.1,3.8-2.3,5.4-3.7c12.8-1.8,25.1,4.3,38.5,0c9.8-3.1,18-12.2,24.4-19.7
	C176.2,197.8,174.5,197.8,173.7,198.9 M101.4,202.4c-0.5,1.8-1.8,3.3-4.1,4.5c-2.2,1.2-4.2,1.6-5.9,1c-1.9-0.8-3.5-2.2-4.4-4.1
	c-1.1-1.8-1.6-3.9-1.2-6c0.4-1.8,1.8-3.3,4-4.5c2.2-1.2,4.2-1.6,6-1c2,0.8,3.6,2.2,4.5,4.1C101.4,198.2,101.8,200.3,101.4,202.4"/>
</svg>
